<mxfile host="65bd71144e" pages="2">
    <diagram name="LOGIN" id="iP0i_BZvKeixcQ88CIgJ">
        <mxGraphModel dx="746" dy="568" grid="1" gridSize="10" guides="1" tooltips="1" connect="1" arrows="1" fold="1" page="1" pageScale="1" pageWidth="850" pageHeight="1100" math="0" shadow="0">
            <root>
                <mxCell id="0"/>
                <mxCell id="1" parent="0"/>
                <mxCell id="y9lc6isI2O-xnsn2nCow-3" style="edgeStyle=orthogonalEdgeStyle;rounded=0;orthogonalLoop=1;jettySize=auto;html=1;exitX=1;exitY=0.5;exitDx=0;exitDy=0;entryX=0;entryY=0.5;entryDx=0;entryDy=0;" parent="1" target="y9lc6isI2O-xnsn2nCow-2" edge="1">
                    <mxGeometry relative="1" as="geometry">
                        <mxPoint x="180" y="160" as="sourcePoint"/>
                    </mxGeometry>
                </mxCell>
                <mxCell id="y9lc6isI2O-xnsn2nCow-7" style="edgeStyle=orthogonalEdgeStyle;rounded=0;orthogonalLoop=1;jettySize=auto;html=1;exitX=1;exitY=0.5;exitDx=0;exitDy=0;entryX=0;entryY=0.5;entryDx=0;entryDy=0;" parent="1" source="y9lc6isI2O-xnsn2nCow-2" edge="1">
                    <mxGeometry relative="1" as="geometry">
                        <mxPoint x="430" y="160" as="targetPoint"/>
                    </mxGeometry>
                </mxCell>
                <mxCell id="y9lc6isI2O-xnsn2nCow-2" value="User menginputkan email dan password" style="shape=parallelogram;perimeter=parallelogramPerimeter;whiteSpace=wrap;html=1;fixedSize=1;" parent="1" vertex="1">
                    <mxGeometry x="240" y="130" width="120" height="60" as="geometry"/>
                </mxCell>
                <mxCell id="y9lc6isI2O-xnsn2nCow-4" value="Mulai" style="ellipse;whiteSpace=wrap;html=1;" parent="1" vertex="1">
                    <mxGeometry x="60" y="120" width="120" height="80" as="geometry"/>
                </mxCell>
                <mxCell id="y9lc6isI2O-xnsn2nCow-14" style="edgeStyle=orthogonalEdgeStyle;curved=1;rounded=0;orthogonalLoop=1;jettySize=auto;html=1;exitX=0;exitY=1;exitDx=0;exitDy=0;entryX=0.5;entryY=0;entryDx=0;entryDy=0;" parent="1" source="y9lc6isI2O-xnsn2nCow-8" target="y9lc6isI2O-xnsn2nCow-9" edge="1">
                    <mxGeometry relative="1" as="geometry"/>
                </mxCell>
                <mxCell id="y9lc6isI2O-xnsn2nCow-18" style="edgeStyle=orthogonalEdgeStyle;curved=1;rounded=0;orthogonalLoop=1;jettySize=auto;html=1;exitX=1;exitY=1;exitDx=0;exitDy=0;entryX=0.5;entryY=0;entryDx=0;entryDy=0;" parent="1" source="y9lc6isI2O-xnsn2nCow-8" target="y9lc6isI2O-xnsn2nCow-17" edge="1">
                    <mxGeometry relative="1" as="geometry"/>
                </mxCell>
                <mxCell id="y9lc6isI2O-xnsn2nCow-8" value="Apakah email ada didalam database ?" style="rhombus;whiteSpace=wrap;html=1;" parent="1" vertex="1">
                    <mxGeometry x="430" y="120" width="80" height="80" as="geometry"/>
                </mxCell>
                <mxCell id="y9lc6isI2O-xnsn2nCow-9" value="Error Handler" style="rounded=0;whiteSpace=wrap;html=1;" parent="1" vertex="1">
                    <mxGeometry x="310" y="270" width="120" height="60" as="geometry"/>
                </mxCell>
                <mxCell id="y9lc6isI2O-xnsn2nCow-19" style="edgeStyle=orthogonalEdgeStyle;curved=1;rounded=0;orthogonalLoop=1;jettySize=auto;html=1;exitX=0;exitY=1;exitDx=0;exitDy=0;entryX=0.5;entryY=1;entryDx=0;entryDy=0;" parent="1" source="y9lc6isI2O-xnsn2nCow-17" target="y9lc6isI2O-xnsn2nCow-9" edge="1">
                    <mxGeometry relative="1" as="geometry"/>
                </mxCell>
                <mxCell id="3c55GSA1aJmb3AAB481H-5" style="edgeStyle=orthogonalEdgeStyle;curved=1;rounded=0;orthogonalLoop=1;jettySize=auto;html=1;exitX=1;exitY=1;exitDx=0;exitDy=0;entryX=0.5;entryY=0;entryDx=0;entryDy=0;" parent="1" source="y9lc6isI2O-xnsn2nCow-17" target="y9lc6isI2O-xnsn2nCow-20" edge="1">
                    <mxGeometry relative="1" as="geometry"/>
                </mxCell>
                <mxCell id="y9lc6isI2O-xnsn2nCow-17" value="Input password === database password" style="rhombus;whiteSpace=wrap;html=1;" parent="1" vertex="1">
                    <mxGeometry x="500" y="245" width="110" height="110" as="geometry"/>
                </mxCell>
                <mxCell id="3c55GSA1aJmb3AAB481H-6" style="edgeStyle=orthogonalEdgeStyle;curved=1;rounded=0;orthogonalLoop=1;jettySize=auto;html=1;exitX=0;exitY=0.5;exitDx=0;exitDy=0;entryX=1;entryY=0.5;entryDx=0;entryDy=0;" parent="1" source="y9lc6isI2O-xnsn2nCow-20" target="3c55GSA1aJmb3AAB481H-3" edge="1">
                    <mxGeometry relative="1" as="geometry"/>
                </mxCell>
                <mxCell id="y9lc6isI2O-xnsn2nCow-20" value="Login Success" style="shape=parallelogram;perimeter=parallelogramPerimeter;whiteSpace=wrap;html=1;fixedSize=1;" parent="1" vertex="1">
                    <mxGeometry x="570" y="410" width="120" height="60" as="geometry"/>
                </mxCell>
                <mxCell id="y9lc6isI2O-xnsn2nCow-22" value="False" style="text;html=1;strokeColor=none;fillColor=none;align=center;verticalAlign=middle;whiteSpace=wrap;rounded=0;" parent="1" vertex="1">
                    <mxGeometry x="390" y="340" width="60" height="30" as="geometry"/>
                </mxCell>
                <mxCell id="y9lc6isI2O-xnsn2nCow-23" value="True" style="text;html=1;strokeColor=none;fillColor=none;align=center;verticalAlign=middle;whiteSpace=wrap;rounded=0;" parent="1" vertex="1">
                    <mxGeometry x="500" y="190" width="60" height="30" as="geometry"/>
                </mxCell>
                <mxCell id="y9lc6isI2O-xnsn2nCow-24" value="False" style="text;html=1;strokeColor=none;fillColor=none;align=center;verticalAlign=middle;whiteSpace=wrap;rounded=0;" parent="1" vertex="1">
                    <mxGeometry x="360" y="200" width="60" height="30" as="geometry"/>
                </mxCell>
                <mxCell id="y9lc6isI2O-xnsn2nCow-25" value="True" style="text;html=1;strokeColor=none;fillColor=none;align=center;verticalAlign=middle;whiteSpace=wrap;rounded=0;" parent="1" vertex="1">
                    <mxGeometry x="590" y="350" width="60" height="30" as="geometry"/>
                </mxCell>
                <mxCell id="y9lc6isI2O-xnsn2nCow-26" value="&lt;font style=&quot;font-size: 24px;&quot;&gt;&lt;b&gt;LOGIN&lt;/b&gt;&lt;/font&gt;" style="text;html=1;strokeColor=none;fillColor=none;align=center;verticalAlign=middle;whiteSpace=wrap;rounded=0;" parent="1" vertex="1">
                    <mxGeometry x="70" y="50" width="60" height="30" as="geometry"/>
                </mxCell>
                <mxCell id="3c55GSA1aJmb3AAB481H-3" value="END" style="ellipse;whiteSpace=wrap;html=1;" parent="1" vertex="1">
                    <mxGeometry x="315" y="420" width="115" height="80" as="geometry"/>
                </mxCell>
            </root>
        </mxGraphModel>
    </diagram>
    <diagram id="ALrmC7CvWXe1kfdEyK2u" name="REGISTER">
        <mxGraphModel dx="1050" dy="541" grid="1" gridSize="10" guides="1" tooltips="1" connect="1" arrows="1" fold="1" page="1" pageScale="1" pageWidth="850" pageHeight="1100" math="0" shadow="0">
            <root>
                <mxCell id="0"/>
                <mxCell id="1" parent="0"/>
                <mxCell id="QQAZs2RxVz6US607x1b8-3" style="edgeStyle=orthogonalEdgeStyle;curved=1;rounded=0;orthogonalLoop=1;jettySize=auto;html=1;exitX=1;exitY=0.5;exitDx=0;exitDy=0;entryX=0;entryY=0.5;entryDx=0;entryDy=0;" edge="1" parent="1" source="zG5GnE8sxm_xd77nCRcg-2" target="QQAZs2RxVz6US607x1b8-2">
                    <mxGeometry relative="1" as="geometry"/>
                </mxCell>
                <mxCell id="zG5GnE8sxm_xd77nCRcg-2" value="Mulai" style="ellipse;whiteSpace=wrap;html=1;" vertex="1" parent="1">
                    <mxGeometry x="50" y="120" width="120" height="80" as="geometry"/>
                </mxCell>
                <mxCell id="QQAZs2RxVz6US607x1b8-1" value="&lt;b&gt;&lt;font style=&quot;font-size: 24px;&quot;&gt;REGISTER&lt;/font&gt;&lt;/b&gt;" style="text;html=1;strokeColor=none;fillColor=none;align=center;verticalAlign=middle;whiteSpace=wrap;rounded=0;" vertex="1" parent="1">
                    <mxGeometry x="80" y="50" width="60" height="30" as="geometry"/>
                </mxCell>
                <mxCell id="QQAZs2RxVz6US607x1b8-5" style="edgeStyle=orthogonalEdgeStyle;curved=1;rounded=0;orthogonalLoop=1;jettySize=auto;html=1;exitX=1;exitY=0.5;exitDx=0;exitDy=0;entryX=0;entryY=0.5;entryDx=0;entryDy=0;" edge="1" parent="1" source="QQAZs2RxVz6US607x1b8-2" target="QQAZs2RxVz6US607x1b8-4">
                    <mxGeometry relative="1" as="geometry"/>
                </mxCell>
                <mxCell id="QQAZs2RxVz6US607x1b8-2" value="User menginputkan email dan password" style="shape=parallelogram;perimeter=parallelogramPerimeter;whiteSpace=wrap;html=1;fixedSize=1;" vertex="1" parent="1">
                    <mxGeometry x="240" y="130" width="120" height="60" as="geometry"/>
                </mxCell>
                <mxCell id="QQAZs2RxVz6US607x1b8-7" style="edgeStyle=orthogonalEdgeStyle;curved=1;rounded=0;orthogonalLoop=1;jettySize=auto;html=1;exitX=0.5;exitY=1;exitDx=0;exitDy=0;entryX=0.5;entryY=0;entryDx=0;entryDy=0;" edge="1" parent="1" source="QQAZs2RxVz6US607x1b8-4" target="QQAZs2RxVz6US607x1b8-6">
                    <mxGeometry relative="1" as="geometry"/>
                </mxCell>
                <mxCell id="QQAZs2RxVz6US607x1b8-4" value="Password dihash menggunakan algoritma enkripsi" style="rounded=0;whiteSpace=wrap;html=1;" vertex="1" parent="1">
                    <mxGeometry x="425" y="130" width="120" height="60" as="geometry"/>
                </mxCell>
                <mxCell id="QQAZs2RxVz6US607x1b8-9" style="edgeStyle=orthogonalEdgeStyle;curved=1;rounded=0;orthogonalLoop=1;jettySize=auto;html=1;exitX=0.5;exitY=1;exitDx=0;exitDy=0;entryX=0.5;entryY=0;entryDx=0;entryDy=0;" edge="1" parent="1" source="QQAZs2RxVz6US607x1b8-6" target="QQAZs2RxVz6US607x1b8-8">
                    <mxGeometry relative="1" as="geometry"/>
                </mxCell>
                <mxCell id="QQAZs2RxVz6US607x1b8-6" value="Insert data kedalam database" style="rounded=0;whiteSpace=wrap;html=1;" vertex="1" parent="1">
                    <mxGeometry x="425" y="260" width="120" height="60" as="geometry"/>
                </mxCell>
                <mxCell id="ASF50GOG3nhW-mzmDdSm-2" style="edgeStyle=orthogonalEdgeStyle;curved=1;rounded=0;orthogonalLoop=1;jettySize=auto;html=1;exitX=0;exitY=0.5;exitDx=0;exitDy=0;" edge="1" parent="1" source="QQAZs2RxVz6US607x1b8-8" target="ASF50GOG3nhW-mzmDdSm-1">
                    <mxGeometry relative="1" as="geometry"/>
                </mxCell>
                <mxCell id="QQAZs2RxVz6US607x1b8-8" value="Register success" style="shape=parallelogram;perimeter=parallelogramPerimeter;whiteSpace=wrap;html=1;fixedSize=1;" vertex="1" parent="1">
                    <mxGeometry x="425" y="380" width="120" height="60" as="geometry"/>
                </mxCell>
                <mxCell id="ASF50GOG3nhW-mzmDdSm-1" value="End" style="ellipse;whiteSpace=wrap;html=1;" vertex="1" parent="1">
                    <mxGeometry x="230" y="370" width="120" height="80" as="geometry"/>
                </mxCell>
            </root>
        </mxGraphModel>
    </diagram>
</mxfile>
